<?xml version="1.0" encoding="utf-8"?>
<!-- Generator: Adobe Illustrator 19.2.1, SVG Export Plug-In . SVG Version: 6.00 Build 0)  -->
<svg version="1.1" id="layer" xmlns="http://www.w3.org/2000/svg" xmlns:xlink="http://www.w3.org/1999/xlink" x="0px" y="0px"
	 viewBox="0 0 652 652" style="enable-background:new 0 0 652 652;" xml:space="preserve">
<style type="text/css">
	.st0{fill:#EC1C25;}
	.st1{fill:#FFFFFF;}
</style>
<g>
	<g>
		<rect x="27" y="227.1" class="st0" width="600" height="199.4"/>
		<path class="st1" d="M484.5,314.5h69.1c2.8,0,5.2-0.9,6.6-2.3c1.6-1.6,2.4-4.1,2.4-7.8V277H554v26.2c0,3.2-0.9,4.6-3.4,4.6h-39.9
			c-3.1-0.7-5.4-3.1-5.4-7c-0.1-4.2,2.9-7.2,7.5-7.2c3.3,0,5.8,1.6,6.9,4.1l6.9-4.3c-2.8-3.6-7.7-6-14.2-6
			c-10.5,0-16.1,6.2-16.1,13.8c0,2.5,0.6,4.8,1.6,6.7h-13.2V288h-8.7v21.3c0,5.2-0.5,7.4-1.7,8.6c-1.1,1.1-1.6,1.6-3.8,1.7v6.4
			c4.1,0,7.3-0.3,10.3-3.2C482.7,320.9,484,318.4,484.5,314.5 M127.3,314.5h8.7V277h-8.7V314.5z M190.2,326.1c2.9,0,4.6-1.7,4.6-3.8
			c-0.1-2.1-1.8-3.8-4.6-3.8c-2.8,0-4.6,1.6-4.6,3.8C185.6,324.4,187.4,326.1,190.2,326.1L190.2,326.1z M452.8,326.1
			c2.9,0,4.7-1.7,4.7-3.8c-0.1-2.1-1.8-3.8-4.6-3.8c-2.8,0-4.6,1.6-4.6,3.8C448.2,324.4,450,326.1,452.8,326.1L452.8,326.1z
			 M200.5,326.1c2.9,0,4.7-1.7,4.7-3.8c-0.1-2.1-1.8-3.8-4.6-3.8c-2.8,0-4.6,1.6-4.6,3.8C195.9,324.4,197.7,326.1,200.5,326.1
			L200.5,326.1z M577.5,277h-8.7v37.5h8.7V277z M304.1,314.5c2.8,0,5.2-0.9,6.6-2.3c0.2-0.2,0.4-0.5,0.6-0.7v3h10.3
			c2.8,0,5.2-0.9,6.6-2.3c1.6-1.6,2.4-4.1,2.4-7.8V277h-8.6v26.2c0,3.2-0.9,4.6-3.4,4.6h-5.8c0.2-1,0.3-2.1,0.3-3.4V277h-8.6v26.2
			c0,3.2-0.9,4.6-3.4,4.6h-31.7c1-1.8,1.5-3.9,1.5-6.3c0-7.3-5.6-13.4-16.1-13.4h-19.6V277h-8.7v30.8h-10.8c0.2-1,0.3-2.1,0.3-3.4
			v-16.3h-8.6v15.1c0,3.2-0.9,4.6-3.4,4.6h-47.8V288h-8.7v21.3c0,5.2-0.5,7.4-1.7,8.6c-1.1,1.1-1.4,1.6-3.6,1.7v6.4
			c4.1,0,7.1-0.3,10.1-3.2c2-1.9,3.3-4.5,3.8-8.3h51c2.8,0,5.2-0.9,6.6-2.3c0.4-0.4,0.8-0.9,1.1-1.4v3.7H304.1z M235.2,294.2h19.2
			c4.6,0,7.6,2.9,7.5,7c0,3.4-1.9,5.7-4.6,6.6h-22.1V294.2z M416.9,326.1c2.9,0,4.7-1.7,4.7-3.8c-0.1-2.1-1.8-3.8-4.6-3.8
			c-2.8,0-4.7,1.6-4.7,3.8C412.3,324.4,414.1,326.1,416.9,326.1L416.9,326.1z M358.7,284.3L358.7,284.3c2.9,0,4.7-1.7,4.7-3.8
			c-0.1-2.1-1.8-3.8-4.6-3.8c-2.8,0-4.7,1.6-4.7,3.8C354.2,282.6,356,284.3,358.7,284.3 M431.9,322.3c-0.1-2.1-1.8-3.8-4.6-3.8
			s-4.7,1.6-4.7,3.8c0,2.1,1.8,3.8,4.5,3.8h0.1C430.1,326.1,431.9,324.4,431.9,322.3 M110.9,301.8c0,4.9-6,7.9-13.1,7.9
			c-7.1,0-12.5-2.9-12.5-7.9v-13.7h-8.5v11.8c0,5.1,1.3,9.2,5.2,11.9c3.7,2.5,8.5,4.1,16,4.1c7.5,0,12.3-1.6,16-4.1
			c3.9-2.6,5.2-6.8,5.2-11.9v-11.8h-8.5V301.8z M369.1,284.3L369.1,284.3c2.9,0,4.7-1.7,4.7-3.8c-0.1-2.1-1.8-3.8-4.6-3.8
			c-2.8,0-4.7,1.6-4.7,3.8C364.5,282.6,366.3,284.3,369.1,284.3 M458.3,303.1c0,3.2-0.9,4.6-3.4,4.6h-12.6c0.2-1,0.3-2.1,0.3-3.4
			v-16.3h-8.6v15.1c0,3.2-0.9,4.6-3.4,4.6h-55.1v-19.7h-13.6c-10.5,0-16.1,6.1-16.1,13.4c0,7.9,5.2,12.9,16.6,12.9h1.1l3.1-6.1h-4.3
			c-4.2,0-7.7-2.4-7.7-7.1c-0.1-4.1,2.9-7,7.5-7h4.4v14.1v6.2h66.8c2.8,0,5.2-0.9,6.6-2.3c0.3-0.3,0.6-0.7,0.8-1v3.3h16.9
			c2.8,0,5.2-0.9,6.6-2.3c1.6-1.6,2.4-4.1,2.4-7.8v-16.3h-8.6V303.1z M98.1,284.3L98.1,284.3c2.9,0,4.7-1.7,4.7-3.8
			c-0.1-2.1-1.8-3.8-4.6-3.8c-2.8,0-4.6,1.6-4.6,3.8C93.6,282.6,95.4,284.3,98.1,284.3 M112.4,355.3c0-8.3-4.2-15.2-17.5-15.2
			c-8.5,0-15.5,2.2-15.5,2.2l2.3,6.2c0,0,6.8-2,12.3-2c6.3,0,6.8,3.1,6.8,5v0.4c-14.6,0-24.3,5-24.3,14.2c0,5.6,4.8,10.8,12.9,10.8
			c4.8,0,9.6-1.5,12.3-4.3h0.2c0,0,0.5,3.5,4.1,3.5h7c-0.5-1.9-0.7-5.2-0.7-8.5V355.3z M101.2,362.3c0,0.7-0.1,1.4-0.3,2.1
			c-0.9,2.5-4,4.5-7.4,4.5c-3.2,0-6-1.5-6-4.7c0-4.7,6.2-6.2,13.8-6.2V362.3z M156.4,347.5h-0.3l-0.2-3.2c0,0,0-3.4-4-3.4h-5.9
			c0.3,3,0.3,6.4,0.3,11.6v23.6h11.4v-16.8c0-6.8,6.6-10.2,12.2-10.2v-8.8c-0.9-0.1-1.5-0.2-2.6-0.2
			C163.3,340.1,158.4,342.3,156.4,347.5 M319.5,340.1c-5.6,0-9.7,1.9-12.1,5h-0.2v-18.9h-11.8v39.4c0,3.9-0.2,8.2-0.3,10.5h5.7
			c4.1,0,4.7-4.9,4.7-4.9h0.2c2.8,4.2,7.4,5.7,12,5.7c9.2,0,18.2-6.3,18.2-19C336,347.1,329.1,340.1,319.5,340.1 M315.4,368.2
			c-3.9,0-7-2.3-7.8-5.2c-0.2-0.6-0.3-1.2-0.3-1.9V356c0-0.7,0.1-1.4,0.3-2c0.9-3.2,4.2-5.4,7.8-5.4c6.3,0,9.3,4.3,9.3,9.8
			C324.6,364.6,321.1,368.2,315.4,368.2 M129.2,325.9c-3.5,0-5.8,2.2-5.8,5c0,2.8,2.2,5,5.6,5h0.1c3.6,0,5.8-2.2,5.8-5
			C134.8,328.1,132.7,325.9,129.2,325.9 M123.6,376.1H135v-35.3h-11.4V376.1z M349.9,325.9c-3.5,0-5.8,2.2-5.8,5c0,2.8,2.2,5,5.6,5
			h0.1c3.6,0,5.8-2.2,5.8-5C355.5,328.1,353.4,325.9,349.9,325.9 M344.3,376.1h11.4v-35.3h-11.4V376.1z M415.1,365.9
			c-3.4,0-5.8,2.2-5.8,5.3c0,3,2.4,5.2,5.7,5.2h0.1c3.5,0,5.8-2.2,5.8-5.2C420.7,368,418.4,365.9,415.1,365.9 M451,347.8
			c3.5,0,5.8,0.5,7.4,1.2l2.1-7.4c-2.6-0.9-6.2-1.4-9.5-1.4c-14.9,0-22.9,8.4-22.9,18.7c0,11.1,8.3,18,21.2,18
			c4.7,0,8.9-0.7,11.1-1.6l-1.6-7.4c-2,0.8-4.4,1.2-7.6,1.2c-6.4,0-11.7-3.7-11.7-10.7C439.5,352.2,444,347.8,451,347.8
			 M488.5,340.1c-12.9,0-21.4,7.3-21.4,18.6c0,11.4,9,18.1,20.7,18.1h0.1c10.6,0,21-5.9,21-18.7
			C508.9,347.5,500.7,340.1,488.5,340.1 M488,369L488,369c-6.5,0-10-4.5-10-10.5c0-5.2,2.8-10.6,10-10.6c6.9,0,9.7,5.3,9.7,10.5
			C497.8,364.8,494,369,488,369 M564.1,340.1c-2.9,0-5.4,0.6-7.6,1.7c-2,1-3.7,2.4-5.2,4.3h-0.2c-1.7-3.6-5.7-6-11-6
			c-6.8,0-10.4,3.3-12.1,5.6h-0.3l-0.2-2.2c0,0-0.4-2.6-3.3-2.6h-7.2c0.2,3.2,0.3,6.8,0.3,11.2v23.9h11.4v-20.4
			c0-0.9,0.1-1.9,0.5-2.8c0.7-1.7,2.9-3.9,6.1-3.9c4,0,6.1,3,6.1,7.4v19.7h11.4v-20.6c0-0.9,0.2-1.9,0.4-2.7
			c0.9-2.1,3.2-3.8,6.1-3.8c4,0,6.2,3,6.2,8.1v19h11.4v-20.7C577.3,344.9,571.8,340.1,564.1,340.1 M210,355.3
			c0-8.3-4.2-15.2-17.5-15.2c-8.5,0-15.5,2.2-15.5,2.2l2.3,6.2c0,0,6.8-2,12.3-2c6.3,0,6.8,3.1,6.8,5v0.4c-14.6,0-24.3,5-24.3,14.2
			c0,5.6,4.8,10.8,12.9,10.8c4.8,0,9.6-1.5,12.3-4.3h0.2c0,0,0.5,3.5,4.1,3.5h7c-0.5-1.9-0.7-5.2-0.7-8.5V355.3z M198.9,362.3
			c0,0.7-0.1,1.4-0.3,2.1c-0.9,2.5-4,4.5-7.4,4.5c-3.2,0-6-1.5-6-4.7c0-4.7,6.2-6.2,13.8-6.2V362.3z M231.4,347.5h-0.3l-0.2-3.2
			c0,0,0-3.4-4-3.4H221c0.3,3,0.3,6.4,0.3,11.6v23.6h11.4v-16.8c0-6.8,6.6-10.2,12.2-10.2v-8.8c-0.9-0.1-1.5-0.2-2.6-0.2
			C238.3,340.1,233.5,342.3,231.4,347.5 M284.3,355.3c0-8.3-4.2-15.2-17.5-15.2c-8.5,0-15.5,2.2-15.5,2.2l2.3,6.2c0,0,6.8-2,12.3-2
			c6.3,0,6.8,3.1,6.8,5v0.4c-14.6,0-24.3,5-24.3,14.2c0,5.6,4.8,10.8,12.9,10.8c4.8,0,9.6-1.5,12.3-4.3h0.2c0,0,0.5,3.5,4.1,3.5h7
			c-0.5-1.9-0.7-5.2-0.7-8.5V355.3z M273.1,362.3c0,0.7-0.1,1.4-0.3,2.1c-0.9,2.5-4,4.5-7.4,4.5c-3.2,0-6.1-1.5-6.1-4.7
			c0-4.7,6.2-6.2,13.8-6.2V362.3z M399.9,355.3c0-8.3-4.2-15.2-17.5-15.2c-8.4,0-15.5,2.2-15.5,2.2l2.3,6.2c0,0,6.8-2,12.3-2
			c6.3,0,6.8,3.1,6.8,5v0.4c-14.6,0-24.3,5-24.3,14.2c0,5.6,4.8,10.8,12.9,10.8c4.8,0,9.6-1.5,12.3-4.3h0.2c0,0,0.5,3.5,4.1,3.5h7
			c-0.5-1.9-0.7-5.2-0.7-8.5V355.3z M388.7,362.3c0,0.7-0.1,1.4-0.3,2.1c-0.9,2.5-4,4.5-7.4,4.5c-3.2,0-6-1.5-6-4.7
			c0-4.7,6.2-6.2,13.8-6.2V362.3z"/>
	</g>
</g>
</svg>
